<svg xmlns="http://www.w3.org/2000/svg" version="1.1" xmlns:xlink="http://www.w3.org/1999/xlink" xmlns:svgjs="http://svgjs.dev/svgjs" width="1440" height="560" preserveAspectRatio="none" viewBox="0 0 1440 560"><g mask="url(&quot;#SvgjsMask1000&quot;)" fill="none"><rect width="1440" height="560" x="0" y="0" fill="#0e2a47"></rect><path d="M-58.42 397.35L-58.42 397.35" stroke="#132e65" stroke-width="1.5"></path><path d="M-58.42 397.35L-66.14 549.44" stroke="#132e65" stroke-width="1.5"></path><path d="M-58.42 397.35L90.1 362.42" stroke="#132e65" stroke-width="1.5"></path><path d="M-58.42 397.35L61.44 544" stroke="#132e65" stroke-width="1.5"></path><path d="M-58.42 397.35L-92.32 639.64" stroke="#132e65" stroke-width="1.5"></path><path d="M-58.42 397.35L207.93 538.86" stroke="#132e65" stroke-width="1.5"></path><path d="M-66.14 549.44L-66.14 549.44" stroke="#132e65" stroke-width="1.5"></path><path d="M-66.14 549.44L-92.32 639.64" stroke="#132e65" stroke-width="1.5"></path><path d="M-66.14 549.44L61.44 544" stroke="#132e65" stroke-width="1.5"></path><path d="M-92.32 639.64L-92.32 639.64" stroke="#132e65" stroke-width="1.5"></path><path d="M-92.32 639.64L79.72 666.16" stroke="#132e65" stroke-width="1.5"></path><path d="M-92.32 639.64L61.44 544" stroke="#132e65" stroke-width="1.5"></path><path d="M90.1 362.42L90.1 362.42" stroke="#132e65" stroke-width="1.5"></path><path d="M90.1 362.42L61.44 544" stroke="#132e65" stroke-width="1.5"></path><path d="M90.1 362.42L207.93 538.86" stroke="#132e65" stroke-width="1.5"></path><path d="M90.1 362.42L-66.14 549.44" stroke="#132e65" stroke-width="1.5"></path><path d="M90.1 362.42L79.72 666.16" stroke="#132e65" stroke-width="1.5"></path><path d="M90.1 362.42L219.04 659.56" stroke="#132e65" stroke-width="1.5"></path><path d="M61.44 544L61.44 544" stroke="#132e65" stroke-width="1.5"></path><path d="M61.44 544L79.72 666.16" stroke="#132e65" stroke-width="1.5"></path><path d="M79.72 666.16L79.72 666.16" stroke="#132e65" stroke-width="1.5"></path><path d="M79.72 666.16L219.04 659.56" stroke="#132e65" stroke-width="1.5"></path><path d="M207.93 538.86L207.93 538.86" stroke="#132e65" stroke-width="1.5"></path><path d="M207.93 538.86L219.04 659.56" stroke="#132e65" stroke-width="1.5"></path><path d="M207.93 538.86L61.44 544" stroke="#132e65" stroke-width="1.5"></path><path d="M219.04 659.56L219.04 659.56" stroke="#132e65" stroke-width="1.5"></path><path d="M219.04 659.56L391.11 647.99" stroke="#132e65" stroke-width="1.5"></path><path d="M219.04 659.56L61.44 544" stroke="#132e65" stroke-width="1.5"></path><path d="M219.04 659.56L368.14 531.43" stroke="#132e65" stroke-width="1.5"></path><path d="M219.04 659.56L-66.14 549.44" stroke="#132e65" stroke-width="1.5"></path><path d="M412.14 398.4L412.14 398.4" stroke="#132e65" stroke-width="1.5"></path><path d="M412.14 398.4L368.14 531.43" stroke="#132e65" stroke-width="1.5"></path><path d="M412.14 398.4L529.12 529.83" stroke="#132e65" stroke-width="1.5"></path><path d="M412.14 398.4L207.93 538.86" stroke="#132e65" stroke-width="1.5"></path><path d="M412.14 398.4L391.11 647.99" stroke="#132e65" stroke-width="1.5"></path><path d="M368.14 531.43L368.14 531.43" stroke="#132e65" stroke-width="1.5"></path><path d="M368.14 531.43L391.11 647.99" stroke="#132e65" stroke-width="1.5"></path><path d="M368.14 531.43L207.93 538.86" stroke="#132e65" stroke-width="1.5"></path><path d="M368.14 531.43L529.12 529.83" stroke="#132e65" stroke-width="1.5"></path><path d="M391.11 647.99L391.11 647.99" stroke="#132e65" stroke-width="1.5"></path><path d="M391.11 647.99L554.01 670.14" stroke="#132e65" stroke-width="1.5"></path><path d="M391.11 647.99L529.12 529.83" stroke="#132e65" stroke-width="1.5"></path><path d="M391.11 647.99L207.93 538.86" stroke="#132e65" stroke-width="1.5"></path><path d="M529.12 529.83L529.12 529.83" stroke="#132e65" stroke-width="1.5"></path><path d="M529.12 529.83L650.06 544.99" stroke="#132e65" stroke-width="1.5"></path><path d="M529.12 529.83L554.01 670.14" stroke="#132e65" stroke-width="1.5"></path><path d="M554.01 670.14L554.01 670.14" stroke="#132e65" stroke-width="1.5"></path><path d="M554.01 670.14L654.06 667.57" stroke="#132e65" stroke-width="1.5"></path><path d="M646.21 254.31L646.21 254.31" stroke="#132e65" stroke-width="1.5"></path><path d="M646.21 254.31L672.52 356.36" stroke="#132e65" stroke-width="1.5"></path><path d="M646.21 254.31L862.22 207.5" stroke="#132e65" stroke-width="1.5"></path><path d="M646.21 254.31L808.93 410.76" stroke="#132e65" stroke-width="1.5"></path><path d="M672.52 356.36L672.52 356.36" stroke="#132e65" stroke-width="1.5"></path><path d="M672.52 356.36L808.93 410.76" stroke="#132e65" stroke-width="1.5"></path><path d="M672.52 356.36L650.06 544.99" stroke="#132e65" stroke-width="1.5"></path><path d="M672.52 356.36L797.96 513.92" stroke="#132e65" stroke-width="1.5"></path><path d="M650.06 544.99L650.06 544.99" stroke="#132e65" stroke-width="1.5"></path><path d="M650.06 544.99L654.06 667.57" stroke="#132e65" stroke-width="1.5"></path><path d="M650.06 544.99L797.96 513.92" stroke="#132e65" stroke-width="1.5"></path><path d="M650.06 544.99L554.01 670.14" stroke="#132e65" stroke-width="1.5"></path><path d="M654.06 667.57L654.06 667.57" stroke="#132e65" stroke-width="1.5"></path><path d="M654.06 667.57L832.48 666.41" stroke="#132e65" stroke-width="1.5"></path><path d="M654.06 667.57L529.12 529.83" stroke="#132e65" stroke-width="1.5"></path><path d="M862.22 207.5L862.22 207.5" stroke="#132e65" stroke-width="1.5"></path><path d="M862.22 207.5L989.11 214.58" stroke="#132e65" stroke-width="1.5"></path><path d="M862.22 207.5L1007.29 76.46" stroke="#132e65" stroke-width="1.5"></path><path d="M862.22 207.5L1003.26 362.14" stroke="#132e65" stroke-width="1.5"></path><path d="M862.22 207.5L808.93 410.76" stroke="#132e65" stroke-width="1.5"></path><path d="M862.22 207.5L672.52 356.36" stroke="#132e65" stroke-width="1.5"></path><path d="M808.93 410.76L808.93 410.76" stroke="#132e65" stroke-width="1.5"></path><path d="M808.93 410.76L797.96 513.92" stroke="#132e65" stroke-width="1.5"></path><path d="M797.96 513.92L797.96 513.92" stroke="#132e65" stroke-width="1.5"></path><path d="M797.96 513.92L832.48 666.41" stroke="#132e65" stroke-width="1.5"></path><path d="M797.96 513.92L997.95 501.03" stroke="#132e65" stroke-width="1.5"></path><path d="M832.48 666.41L832.48 666.41" stroke="#132e65" stroke-width="1.5"></path><path d="M832.48 666.41L988.5 692.83" stroke="#132e65" stroke-width="1.5"></path><path d="M832.48 666.41L650.06 544.99" stroke="#132e65" stroke-width="1.5"></path><path d="M941.93 -80.65L941.93 -80.65" stroke="#132e65" stroke-width="1.5"></path><path d="M941.93 -80.65L1007.29 76.46" stroke="#132e65" stroke-width="1.5"></path><path d="M941.93 -80.65L1116.47 -85.35" stroke="#132e65" stroke-width="1.5"></path><path d="M941.93 -80.65L862.22 207.5" stroke="#132e65" stroke-width="1.5"></path><path d="M941.93 -80.65L989.11 214.58" stroke="#132e65" stroke-width="1.5"></path><path d="M1007.29 76.46L1007.29 76.46" stroke="#132e65" stroke-width="1.5"></path><path d="M1007.29 76.46L989.11 214.58" stroke="#132e65" stroke-width="1.5"></path><path d="M1007.29 76.46L1102.65 238.53" stroke="#132e65" stroke-width="1.5"></path><path d="M1007.29 76.46L1116.47 -85.35" stroke="#132e65" stroke-width="1.5"></path><path d="M1007.29 76.46L1259.21 38.64" stroke="#132e65" stroke-width="1.5"></path><path d="M989.11 214.58L989.11 214.58" stroke="#132e65" stroke-width="1.5"></path><path d="M989.11 214.58L1102.65 238.53" stroke="#132e65" stroke-width="1.5"></path><path d="M1003.26 362.14L1003.26 362.14" stroke="#132e65" stroke-width="1.5"></path><path d="M1003.26 362.14L1139.41 340.62" stroke="#132e65" stroke-width="1.5"></path><path d="M997.95 501.03L997.95 501.03" stroke="#132e65" stroke-width="1.5"></path><path d="M997.95 501.03L1003.26 362.14" stroke="#132e65" stroke-width="1.5"></path><path d="M997.95 501.03L988.5 692.83" stroke="#132e65" stroke-width="1.5"></path><path d="M988.5 692.83L988.5 692.83" stroke="#132e65" stroke-width="1.5"></path><path d="M988.5 692.83L1128.81 689.47" stroke="#132e65" stroke-width="1.5"></path><path d="M1116.47 -85.35L1116.47 -85.35" stroke="#132e65" stroke-width="1.5"></path><path d="M1116.47 -85.35L1260.81 -42.46" stroke="#132e65" stroke-width="1.5"></path><path d="M1116.47 -85.35L1259.21 38.64" stroke="#132e65" stroke-width="1.5"></path><path d="M1102.65 238.53L1102.65 238.53" stroke="#132e65" stroke-width="1.5"></path><path d="M1102.65 238.53L1139.41 340.62" stroke="#132e65" stroke-width="1.5"></path><path d="M1102.65 238.53L1003.26 362.14" stroke="#132e65" stroke-width="1.5"></path><path d="M1102.65 238.53L1268.6 218.28" stroke="#132e65" stroke-width="1.5"></path><path d="M1139.41 340.62L1139.41 340.62" stroke="#132e65" stroke-width="1.5"></path><path d="M1139.41 340.62L1282.87 340.09" stroke="#132e65" stroke-width="1.5"></path><path d="M1128.81 689.47L1128.81 689.47" stroke="#132e65" stroke-width="1.5"></path><path d="M1128.81 689.47L1276.53 681.85" stroke="#132e65" stroke-width="1.5"></path><path d="M1128.81 689.47L1311.92 562.38" stroke="#132e65" stroke-width="1.5"></path><path d="M1128.81 689.47L997.95 501.03" stroke="#132e65" stroke-width="1.5"></path><path d="M1128.81 689.47L832.48 666.41" stroke="#132e65" stroke-width="1.5"></path><path d="M1128.81 689.47L1448.79 642.38" stroke="#132e65" stroke-width="1.5"></path><path d="M1260.81 -42.46L1260.81 -42.46" stroke="#132e65" stroke-width="1.5"></path><path d="M1260.81 -42.46L1259.21 38.64" stroke="#132e65" stroke-width="1.5"></path><path d="M1260.81 -42.46L1434.59 -49.98" stroke="#132e65" stroke-width="1.5"></path><path d="M1259.21 38.64L1259.21 38.64" stroke="#132e65" stroke-width="1.5"></path><path d="M1259.21 38.64L1396.2 109.47" stroke="#132e65" stroke-width="1.5"></path><path d="M1259.21 38.64L1268.6 218.28" stroke="#132e65" stroke-width="1.5"></path><path d="M1259.21 38.64L1434.59 -49.98" stroke="#132e65" stroke-width="1.5"></path><path d="M1268.6 218.28L1268.6 218.28" stroke="#132e65" stroke-width="1.5"></path><path d="M1268.6 218.28L1282.87 340.09" stroke="#132e65" stroke-width="1.5"></path><path d="M1268.6 218.28L1412.47 245.87" stroke="#132e65" stroke-width="1.5"></path><path d="M1268.6 218.28L1396.2 109.47" stroke="#132e65" stroke-width="1.5"></path><path d="M1282.87 340.09L1282.87 340.09" stroke="#132e65" stroke-width="1.5"></path><path d="M1282.87 340.09L1412.47 245.87" stroke="#132e65" stroke-width="1.5"></path><path d="M1282.87 340.09L1436.3 405.8" stroke="#132e65" stroke-width="1.5"></path><path d="M1311.92 562.38L1311.92 562.38" stroke="#132e65" stroke-width="1.5"></path><path d="M1311.92 562.38L1424.47 515.6" stroke="#132e65" stroke-width="1.5"></path><path d="M1311.92 562.38L1276.53 681.85" stroke="#132e65" stroke-width="1.5"></path><path d="M1276.53 681.85L1276.53 681.85" stroke="#132e65" stroke-width="1.5"></path><path d="M1276.53 681.85L1448.79 642.38" stroke="#132e65" stroke-width="1.5"></path><path d="M1276.53 681.85L1424.47 515.6" stroke="#132e65" stroke-width="1.5"></path><path d="M1434.59 -49.98L1434.59 -49.98" stroke="#132e65" stroke-width="1.5"></path><path d="M1434.59 -49.98L1559.33 -53.72" stroke="#132e65" stroke-width="1.5"></path><path d="M1396.2 109.47L1396.2 109.47" stroke="#132e65" stroke-width="1.5"></path><path d="M1396.2 109.47L1412.47 245.87" stroke="#132e65" stroke-width="1.5"></path><path d="M1396.2 109.47L1434.59 -49.98" stroke="#132e65" stroke-width="1.5"></path><path d="M1412.47 245.87L1412.47 245.87" stroke="#132e65" stroke-width="1.5"></path><path d="M1436.3 405.8L1436.3 405.8" stroke="#132e65" stroke-width="1.5"></path><path d="M1436.3 405.8L1424.47 515.6" stroke="#132e65" stroke-width="1.5"></path><path d="M1436.3 405.8L1412.47 245.87" stroke="#132e65" stroke-width="1.5"></path><path d="M1424.47 515.6L1424.47 515.6" stroke="#132e65" stroke-width="1.5"></path><path d="M1424.47 515.6L1448.79 642.38" stroke="#132e65" stroke-width="1.5"></path><path d="M1424.47 515.6L1611.53 492.63" stroke="#132e65" stroke-width="1.5"></path><path d="M1448.79 642.38L1448.79 642.38" stroke="#132e65" stroke-width="1.5"></path><path d="M1448.79 642.38L1569.39 698.93" stroke="#132e65" stroke-width="1.5"></path><path d="M1559.33 -53.72L1559.33 -53.72" stroke="#132e65" stroke-width="1.5"></path><path d="M1559.33 -53.72L1396.2 109.47" stroke="#132e65" stroke-width="1.5"></path><path d="M1559.33 -53.72L1575.03 232.61" stroke="#132e65" stroke-width="1.5"></path><path d="M1575.03 232.61L1575.03 232.61" stroke="#132e65" stroke-width="1.5"></path><path d="M1575.03 232.61L1412.47 245.87" stroke="#132e65" stroke-width="1.5"></path><path d="M1575.03 232.61L1396.2 109.47" stroke="#132e65" stroke-width="1.5"></path><path d="M1575.03 232.61L1436.3 405.8" stroke="#132e65" stroke-width="1.5"></path><path d="M1575.03 232.61L1611.53 492.63" stroke="#132e65" stroke-width="1.5"></path><path d="M1611.53 492.63L1611.53 492.63" stroke="#132e65" stroke-width="1.5"></path><path d="M1611.53 492.63L1436.3 405.8" stroke="#132e65" stroke-width="1.5"></path><path d="M1569.39 698.93L1569.39 698.93" stroke="#132e65" stroke-width="1.5"></path><path d="M1569.39 698.93L1611.53 492.63" stroke="#132e65" stroke-width="1.5"></path><path d="M1569.39 698.93L1424.47 515.6" stroke="#132e65" stroke-width="1.5"></path><circle r="5" cx="-58.42" cy="397.35" fill="#132e65"></circle><circle r="5" cx="-66.14" cy="549.44" fill="#132e65"></circle><circle r="5" cx="-92.32" cy="639.64" fill="#132e65"></circle><circle r="5" cx="90.1" cy="362.42" fill="#132e65"></circle><circle r="5" cx="61.44" cy="544" fill="#132e65"></circle><circle r="5" cx="79.72" cy="666.16" fill="#132e65"></circle><circle r="5" cx="207.93" cy="538.86" fill="#132e65"></circle><circle r="5" cx="219.04" cy="659.56" fill="#132e65"></circle><circle r="5" cx="412.14" cy="398.4" fill="#132e65"></circle><circle r="5" cx="368.14" cy="531.43" fill="#132e65"></circle><circle r="5" cx="391.11" cy="647.99" fill="#132e65"></circle><circle r="5" cx="529.12" cy="529.83" fill="#132e65"></circle><circle r="5" cx="554.01" cy="670.14" fill="#132e65"></circle><circle r="5" cx="646.21" cy="254.31" fill="#132e65"></circle><circle r="5" cx="672.52" cy="356.36" fill="#132e65"></circle><circle r="5" cx="650.06" cy="544.99" fill="#132e65"></circle><circle r="5" cx="654.06" cy="667.57" fill="#132e65"></circle><circle r="5" cx="862.22" cy="207.5" fill="#132e65"></circle><circle r="5" cx="808.93" cy="410.76" fill="#132e65"></circle><circle r="5" cx="797.96" cy="513.92" fill="#132e65"></circle><circle r="5" cx="832.48" cy="666.41" fill="#132e65"></circle><circle r="5" cx="941.93" cy="-80.65" fill="#132e65"></circle><circle r="5" cx="1007.29" cy="76.46" fill="#132e65"></circle><circle r="5" cx="989.11" cy="214.58" fill="#132e65"></circle><circle r="5" cx="1003.26" cy="362.14" fill="#132e65"></circle><circle r="5" cx="997.95" cy="501.03" fill="#132e65"></circle><circle r="5" cx="988.5" cy="692.83" fill="#132e65"></circle><circle r="5" cx="1116.47" cy="-85.35" fill="#132e65"></circle><circle r="5" cx="1102.65" cy="238.53" fill="#132e65"></circle><circle r="5" cx="1139.41" cy="340.62" fill="#132e65"></circle><circle r="5" cx="1128.81" cy="689.47" fill="#132e65"></circle><circle r="5" cx="1260.81" cy="-42.46" fill="#132e65"></circle><circle r="5" cx="1259.21" cy="38.64" fill="#132e65"></circle><circle r="5" cx="1268.6" cy="218.28" fill="#132e65"></circle><circle r="5" cx="1282.87" cy="340.09" fill="#132e65"></circle><circle r="5" cx="1311.92" cy="562.38" fill="#132e65"></circle><circle r="5" cx="1276.53" cy="681.85" fill="#132e65"></circle><circle r="5" cx="1434.59" cy="-49.98" fill="#132e65"></circle><circle r="5" cx="1396.2" cy="109.47" fill="#132e65"></circle><circle r="5" cx="1412.47" cy="245.87" fill="#132e65"></circle><circle r="5" cx="1436.3" cy="405.8" fill="#132e65"></circle><circle r="5" cx="1424.47" cy="515.6" fill="#132e65"></circle><circle r="5" cx="1448.79" cy="642.38" fill="#132e65"></circle><circle r="5" cx="1559.33" cy="-53.72" fill="#132e65"></circle><circle r="5" cx="1575.03" cy="232.61" fill="#132e65"></circle><circle r="5" cx="1611.53" cy="492.63" fill="#132e65"></circle><circle r="5" cx="1569.39" cy="698.93" fill="#132e65"></circle><path d="M701.55 386.96L701.55 386.96" stroke="hsl(228.5, 77.2%, 51.5%)" stroke-width="1.5"></path><path d="M701.55 386.96L821.77 393.82" stroke="hsl(228.5, 77.2%, 51.5%)" stroke-width="1.5"></path><path d="M701.55 386.96L655.03 504.41" stroke="hsl(228.5, 77.2%, 51.5%)" stroke-width="1.5"></path><path d="M701.55 386.96L815.77 558.2" stroke="hsl(228.5, 77.2%, 51.5%)" stroke-width="1.5"></path><path d="M701.55 386.96L526.27 548.28" stroke="hsl(228.5, 77.2%, 51.5%)" stroke-width="1.5"></path><path d="M655.03 504.41L655.03 504.41" stroke="hsl(228.5, 77.2%, 51.5%)" stroke-width="1.5"></path><path d="M1159.1 248.29L1159.1 248.29" stroke="hsl(228.5, 77.2%, 51.5%)" stroke-width="1.5"></path><path d="M1159.1 248.29L1241.21 340.59" stroke="hsl(228.5, 77.2%, 51.5%)" stroke-width="1.5"></path><path d="M1159.1 248.29L1290.82 201.85" stroke="hsl(228.5, 77.2%, 51.5%)" stroke-width="1.5"></path><path d="M1159.1 248.29L1112.79 399.05" stroke="hsl(228.5, 77.2%, 51.5%)" stroke-width="1.5"></path><path d="M1290.82 201.85L1290.82 201.85" stroke="hsl(228.5, 77.2%, 51.5%)" stroke-width="1.5"></path><path d="M1290.82 201.85L1253.01 90.47" stroke="hsl(228.5, 77.2%, 51.5%)" stroke-width="1.5"></path><path d="M1290.82 201.85L1241.21 340.59" stroke="hsl(228.5, 77.2%, 51.5%)" stroke-width="1.5"></path><path d="M1290.82 201.85L1393.05 89.27" stroke="hsl(228.5, 77.2%, 51.5%)" stroke-width="1.5"></path><path d="M1290.82 201.85L1390.13 341.28" stroke="hsl(228.5, 77.2%, 51.5%)" stroke-width="1.5"></path><path d="M1241.21 340.59L1241.21 340.59" stroke="hsl(228.5, 77.2%, 51.5%)" stroke-width="1.5"></path><path d="M1241.21 340.59L1112.79 399.05" stroke="hsl(228.5, 77.2%, 51.5%)" stroke-width="1.5"></path><path d="M1241.21 340.59L1390.13 341.28" stroke="hsl(228.5, 77.2%, 51.5%)" stroke-width="1.5"></path><path d="M1241.21 340.59L1157.17 506.53" stroke="hsl(228.5, 77.2%, 51.5%)" stroke-width="1.5"></path><path d="M1241.21 340.59L1273.19 530.21" stroke="hsl(228.5, 77.2%, 51.5%)" stroke-width="1.5"></path><path d="M1273.19 530.21L1273.19 530.21" stroke="hsl(228.5, 77.2%, 51.5%)" stroke-width="1.5"></path><path d="M1273.19 530.21L1157.17 506.53" stroke="hsl(228.5, 77.2%, 51.5%)" stroke-width="1.5"></path><path d="M1555.48 -105.06L1555.48 -105.06" stroke="hsl(228.5, 77.2%, 51.5%)" stroke-width="1.5"></path><path d="M1555.48 -105.06L1453.03 -112.31" stroke="hsl(228.5, 77.2%, 51.5%)" stroke-width="1.5"></path><path d="M1555.48 -105.06L1590.65 49.36" stroke="hsl(228.5, 77.2%, 51.5%)" stroke-width="1.5"></path><path d="M1555.48 -105.06L1393.05 89.27" stroke="hsl(228.5, 77.2%, 51.5%)" stroke-width="1.5"></path><path d="M1555.48 -105.06L1260.63 -105.88" stroke="hsl(228.5, 77.2%, 51.5%)" stroke-width="1.5"></path><path d="M-92.12 532.84L-92.12 532.84" stroke="hsl(228.5, 77.2%, 51.5%)" stroke-width="1.5"></path><path d="M-92.12 532.84L37.87 537.68" stroke="hsl(228.5, 77.2%, 51.5%)" stroke-width="1.5"></path><path d="M-92.12 532.84L-60.5 677.25" stroke="hsl(228.5, 77.2%, 51.5%)" stroke-width="1.5"></path><path d="M-92.12 532.84L60.85 688.37" stroke="hsl(228.5, 77.2%, 51.5%)" stroke-width="1.5"></path><path d="M-92.12 532.84L204.25 560.93" stroke="hsl(228.5, 77.2%, 51.5%)" stroke-width="1.5"></path><path d="M-92.12 532.84L257.2 708.21" stroke="hsl(228.5, 77.2%, 51.5%)" stroke-width="1.5"></path><path d="M-60.5 677.25L-60.5 677.25" stroke="hsl(228.5, 77.2%, 51.5%)" stroke-width="1.5"></path><path d="M-60.5 677.25L60.85 688.37" stroke="hsl(228.5, 77.2%, 51.5%)" stroke-width="1.5"></path><path d="M-60.5 677.25L37.87 537.68" stroke="hsl(228.5, 77.2%, 51.5%)" stroke-width="1.5"></path><path d="M-60.5 677.25L204.25 560.93" stroke="hsl(228.5, 77.2%, 51.5%)" stroke-width="1.5"></path><path d="M-60.5 677.25L257.2 708.21" stroke="hsl(228.5, 77.2%, 51.5%)" stroke-width="1.5"></path><path d="M-60.5 677.25L409.44 504.81" stroke="hsl(228.5, 77.2%, 51.5%)" stroke-width="1.5"></path><path d="M37.87 537.68L37.87 537.68" stroke="hsl(228.5, 77.2%, 51.5%)" stroke-width="1.5"></path><path d="M37.87 537.68L60.85 688.37" stroke="hsl(228.5, 77.2%, 51.5%)" stroke-width="1.5"></path><path d="M37.87 537.68L204.25 560.93" stroke="hsl(228.5, 77.2%, 51.5%)" stroke-width="1.5"></path><path d="M60.85 688.37L60.85 688.37" stroke="hsl(228.5, 77.2%, 51.5%)" stroke-width="1.5"></path><path d="M60.85 688.37L204.25 560.93" stroke="hsl(228.5, 77.2%, 51.5%)" stroke-width="1.5"></path><path d="M60.85 688.37L257.2 708.21" stroke="hsl(228.5, 77.2%, 51.5%)" stroke-width="1.5"></path><path d="M204.25 560.93L204.25 560.93" stroke="hsl(228.5, 77.2%, 51.5%)" stroke-width="1.5"></path><path d="M204.25 560.93L257.2 708.21" stroke="hsl(228.5, 77.2%, 51.5%)" stroke-width="1.5"></path><path d="M204.25 560.93L409.44 504.81" stroke="hsl(228.5, 77.2%, 51.5%)" stroke-width="1.5"></path><path d="M257.2 708.21L257.2 708.21" stroke="hsl(228.5, 77.2%, 51.5%)" stroke-width="1.5"></path><path d="M257.2 708.21L409.44 504.81" stroke="hsl(228.5, 77.2%, 51.5%)" stroke-width="1.5"></path><path d="M409.44 504.81L409.44 504.81" stroke="hsl(228.5, 77.2%, 51.5%)" stroke-width="1.5"></path><path d="M409.44 504.81L526.27 548.28" stroke="hsl(228.5, 77.2%, 51.5%)" stroke-width="1.5"></path><path d="M409.44 504.81L522.14 670.2" stroke="hsl(228.5, 77.2%, 51.5%)" stroke-width="1.5"></path><path d="M526.27 548.28L526.27 548.28" stroke="hsl(228.5, 77.2%, 51.5%)" stroke-width="1.5"></path><path d="M526.27 548.28L522.14 670.2" stroke="hsl(228.5, 77.2%, 51.5%)" stroke-width="1.5"></path><path d="M526.27 548.28L655.03 504.41" stroke="hsl(228.5, 77.2%, 51.5%)" stroke-width="1.5"></path><path d="M526.27 548.28L680.57 647.31" stroke="hsl(228.5, 77.2%, 51.5%)" stroke-width="1.5"></path><path d="M526.27 548.28L815.77 558.2" stroke="hsl(228.5, 77.2%, 51.5%)" stroke-width="1.5"></path><path d="M522.14 670.2L522.14 670.2" stroke="hsl(228.5, 77.2%, 51.5%)" stroke-width="1.5"></path><path d="M522.14 670.2L680.57 647.31" stroke="hsl(228.5, 77.2%, 51.5%)" stroke-width="1.5"></path><path d="M522.14 670.2L655.03 504.41" stroke="hsl(228.5, 77.2%, 51.5%)" stroke-width="1.5"></path><path d="M522.14 670.2L257.2 708.21" stroke="hsl(228.5, 77.2%, 51.5%)" stroke-width="1.5"></path><path d="M522.14 670.2L802.94 647.19" stroke="hsl(228.5, 77.2%, 51.5%)" stroke-width="1.5"></path><path d="M680.57 647.31L680.57 647.31" stroke="hsl(228.5, 77.2%, 51.5%)" stroke-width="1.5"></path><path d="M680.57 647.31L802.94 647.19" stroke="hsl(228.5, 77.2%, 51.5%)" stroke-width="1.5"></path><path d="M680.57 647.31L655.03 504.41" stroke="hsl(228.5, 77.2%, 51.5%)" stroke-width="1.5"></path><path d="M821.77 393.82L821.77 393.82" stroke="hsl(228.5, 77.2%, 51.5%)" stroke-width="1.5"></path><path d="M821.77 393.82L944.71 380.09" stroke="hsl(228.5, 77.2%, 51.5%)" stroke-width="1.5"></path><path d="M821.77 393.82L815.77 558.2" stroke="hsl(228.5, 77.2%, 51.5%)" stroke-width="1.5"></path><path d="M821.77 393.82L655.03 504.41" stroke="hsl(228.5, 77.2%, 51.5%)" stroke-width="1.5"></path><path d="M821.77 393.82L992.86 508.07" stroke="hsl(228.5, 77.2%, 51.5%)" stroke-width="1.5"></path><path d="M821.77 393.82L802.94 647.19" stroke="hsl(228.5, 77.2%, 51.5%)" stroke-width="1.5"></path><path d="M815.77 558.2L815.77 558.2" stroke="hsl(228.5, 77.2%, 51.5%)" stroke-width="1.5"></path><path d="M815.77 558.2L802.94 647.19" stroke="hsl(228.5, 77.2%, 51.5%)" stroke-width="1.5"></path><path d="M815.77 558.2L680.57 647.31" stroke="hsl(228.5, 77.2%, 51.5%)" stroke-width="1.5"></path><path d="M802.94 647.19L802.94 647.19" stroke="hsl(228.5, 77.2%, 51.5%)" stroke-width="1.5"></path><path d="M944.71 380.09L944.71 380.09" stroke="hsl(228.5, 77.2%, 51.5%)" stroke-width="1.5"></path><path d="M944.71 380.09L992.86 508.07" stroke="hsl(228.5, 77.2%, 51.5%)" stroke-width="1.5"></path><path d="M992.86 508.07L992.86 508.07" stroke="hsl(228.5, 77.2%, 51.5%)" stroke-width="1.5"></path><path d="M992.86 508.07L1112.79 399.05" stroke="hsl(228.5, 77.2%, 51.5%)" stroke-width="1.5"></path><path d="M992.86 508.07L1157.17 506.53" stroke="hsl(228.5, 77.2%, 51.5%)" stroke-width="1.5"></path><path d="M992.86 508.07L815.77 558.2" stroke="hsl(228.5, 77.2%, 51.5%)" stroke-width="1.5"></path><path d="M992.86 508.07L940.15 695.06" stroke="hsl(228.5, 77.2%, 51.5%)" stroke-width="1.5"></path><path d="M940.15 695.06L940.15 695.06" stroke="hsl(228.5, 77.2%, 51.5%)" stroke-width="1.5"></path><path d="M940.15 695.06L802.94 647.19" stroke="hsl(228.5, 77.2%, 51.5%)" stroke-width="1.5"></path><path d="M940.15 695.06L815.77 558.2" stroke="hsl(228.5, 77.2%, 51.5%)" stroke-width="1.5"></path><path d="M940.15 695.06L1159.03 657.21" stroke="hsl(228.5, 77.2%, 51.5%)" stroke-width="1.5"></path><path d="M940.15 695.06L680.57 647.31" stroke="hsl(228.5, 77.2%, 51.5%)" stroke-width="1.5"></path><path d="M1112.79 399.05L1112.79 399.05" stroke="hsl(228.5, 77.2%, 51.5%)" stroke-width="1.5"></path><path d="M1112.79 399.05L1157.17 506.53" stroke="hsl(228.5, 77.2%, 51.5%)" stroke-width="1.5"></path><path d="M1157.17 506.53L1157.17 506.53" stroke="hsl(228.5, 77.2%, 51.5%)" stroke-width="1.5"></path><path d="M1159.03 657.21L1159.03 657.21" stroke="hsl(228.5, 77.2%, 51.5%)" stroke-width="1.5"></path><path d="M1159.03 657.21L1301.33 702.28" stroke="hsl(228.5, 77.2%, 51.5%)" stroke-width="1.5"></path><path d="M1159.03 657.21L1157.17 506.53" stroke="hsl(228.5, 77.2%, 51.5%)" stroke-width="1.5"></path><path d="M1159.03 657.21L1273.19 530.21" stroke="hsl(228.5, 77.2%, 51.5%)" stroke-width="1.5"></path><path d="M1260.63 -105.88L1260.63 -105.88" stroke="hsl(228.5, 77.2%, 51.5%)" stroke-width="1.5"></path><path d="M1260.63 -105.88L1453.03 -112.31" stroke="hsl(228.5, 77.2%, 51.5%)" stroke-width="1.5"></path><path d="M1260.63 -105.88L1253.01 90.47" stroke="hsl(228.5, 77.2%, 51.5%)" stroke-width="1.5"></path><path d="M1253.01 90.47L1253.01 90.47" stroke="hsl(228.5, 77.2%, 51.5%)" stroke-width="1.5"></path><path d="M1253.01 90.47L1393.05 89.27" stroke="hsl(228.5, 77.2%, 51.5%)" stroke-width="1.5"></path><path d="M1253.01 90.47L1159.1 248.29" stroke="hsl(228.5, 77.2%, 51.5%)" stroke-width="1.5"></path><path d="M1301.33 702.28L1301.33 702.28" stroke="hsl(228.5, 77.2%, 51.5%)" stroke-width="1.5"></path><path d="M1301.33 702.28L1273.19 530.21" stroke="hsl(228.5, 77.2%, 51.5%)" stroke-width="1.5"></path><path d="M1301.33 702.28L1443.4 562.36" stroke="hsl(228.5, 77.2%, 51.5%)" stroke-width="1.5"></path><path d="M1301.33 702.28L1157.17 506.53" stroke="hsl(228.5, 77.2%, 51.5%)" stroke-width="1.5"></path><path d="M1301.33 702.28L1576.93 681.53" stroke="hsl(228.5, 77.2%, 51.5%)" stroke-width="1.5"></path><path d="M1453.03 -112.31L1453.03 -112.31" stroke="hsl(228.5, 77.2%, 51.5%)" stroke-width="1.5"></path><path d="M1393.05 89.27L1393.05 89.27" stroke="hsl(228.5, 77.2%, 51.5%)" stroke-width="1.5"></path><path d="M1393.05 89.27L1590.65 49.36" stroke="hsl(228.5, 77.2%, 51.5%)" stroke-width="1.5"></path><path d="M1393.05 89.27L1453.03 -112.31" stroke="hsl(228.5, 77.2%, 51.5%)" stroke-width="1.5"></path><path d="M1393.05 89.27L1260.63 -105.88" stroke="hsl(228.5, 77.2%, 51.5%)" stroke-width="1.5"></path><path d="M1390.13 341.28L1390.13 341.28" stroke="hsl(228.5, 77.2%, 51.5%)" stroke-width="1.5"></path><path d="M1390.13 341.28L1586.17 385.97" stroke="hsl(228.5, 77.2%, 51.5%)" stroke-width="1.5"></path><path d="M1390.13 341.28L1273.19 530.21" stroke="hsl(228.5, 77.2%, 51.5%)" stroke-width="1.5"></path><path d="M1390.13 341.28L1584.59 230.9" stroke="hsl(228.5, 77.2%, 51.5%)" stroke-width="1.5"></path><path d="M1443.4 562.36L1443.4 562.36" stroke="hsl(228.5, 77.2%, 51.5%)" stroke-width="1.5"></path><path d="M1443.4 562.36L1598.23 525.97" stroke="hsl(228.5, 77.2%, 51.5%)" stroke-width="1.5"></path><path d="M1443.4 562.36L1273.19 530.21" stroke="hsl(228.5, 77.2%, 51.5%)" stroke-width="1.5"></path><path d="M1590.65 49.36L1590.65 49.36" stroke="hsl(228.5, 77.2%, 51.5%)" stroke-width="1.5"></path><path d="M1590.65 49.36L1584.59 230.9" stroke="hsl(228.5, 77.2%, 51.5%)" stroke-width="1.5"></path><path d="M1590.65 49.36L1453.03 -112.31" stroke="hsl(228.5, 77.2%, 51.5%)" stroke-width="1.5"></path><path d="M1590.65 49.36L1290.82 201.85" stroke="hsl(228.5, 77.2%, 51.5%)" stroke-width="1.5"></path><path d="M1590.65 49.36L1586.17 385.97" stroke="hsl(228.5, 77.2%, 51.5%)" stroke-width="1.5"></path><path d="M1584.59 230.9L1584.59 230.9" stroke="hsl(228.5, 77.2%, 51.5%)" stroke-width="1.5"></path><path d="M1584.59 230.9L1586.17 385.97" stroke="hsl(228.5, 77.2%, 51.5%)" stroke-width="1.5"></path><path d="M1586.17 385.97L1586.17 385.97" stroke="hsl(228.5, 77.2%, 51.5%)" stroke-width="1.5"></path><path d="M1586.17 385.97L1598.23 525.97" stroke="hsl(228.5, 77.2%, 51.5%)" stroke-width="1.5"></path><path d="M1598.23 525.97L1598.23 525.97" stroke="hsl(228.5, 77.2%, 51.5%)" stroke-width="1.5"></path><path d="M1598.23 525.97L1576.93 681.53" stroke="hsl(228.5, 77.2%, 51.5%)" stroke-width="1.5"></path><path d="M1598.23 525.97L1390.13 341.28" stroke="hsl(228.5, 77.2%, 51.5%)" stroke-width="1.5"></path><path d="M1576.93 681.53L1576.93 681.53" stroke="hsl(228.5, 77.2%, 51.5%)" stroke-width="1.5"></path><path d="M1576.93 681.53L1443.4 562.36" stroke="hsl(228.5, 77.2%, 51.5%)" stroke-width="1.5"></path><path d="M1576.93 681.53L1586.17 385.97" stroke="hsl(228.5, 77.2%, 51.5%)" stroke-width="1.5"></path><circle r="25" cx="701.55" cy="386.96" fill="url(&quot;#SvgjsRadialGradient1001&quot;)"></circle><circle r="25" cx="655.03" cy="504.41" fill="url(&quot;#SvgjsRadialGradient1001&quot;)"></circle><circle r="25" cx="1159.1" cy="248.29" fill="url(&quot;#SvgjsRadialGradient1001&quot;)"></circle><circle r="25" cx="1290.82" cy="201.85" fill="url(&quot;#SvgjsRadialGradient1001&quot;)"></circle><circle r="25" cx="1241.21" cy="340.59" fill="url(&quot;#SvgjsRadialGradient1001&quot;)"></circle><circle r="25" cx="1273.19" cy="530.21" fill="url(&quot;#SvgjsRadialGradient1001&quot;)"></circle><circle r="25" cx="1555.48" cy="-105.06" fill="url(&quot;#SvgjsRadialGradient1001&quot;)"></circle><circle r="5" cx="-92.12" cy="532.84" fill="#8b9ad9"></circle><circle r="5" cx="-60.5" cy="677.25" fill="#8b9ad9"></circle><circle r="5" cx="37.87" cy="537.68" fill="#8b9ad9"></circle><circle r="5" cx="60.85" cy="688.37" fill="#8b9ad9"></circle><circle r="5" cx="204.25" cy="560.93" fill="#8b9ad9"></circle><circle r="5" cx="257.2" cy="708.21" fill="#8b9ad9"></circle><circle r="5" cx="409.44" cy="504.81" fill="#8b9ad9"></circle><circle r="5" cx="526.27" cy="548.28" fill="#8b9ad9"></circle><circle r="5" cx="522.14" cy="670.2" fill="#8b9ad9"></circle><circle r="5" cx="680.57" cy="647.31" fill="#8b9ad9"></circle><circle r="5" cx="821.77" cy="393.82" fill="#8b9ad9"></circle><circle r="5" cx="815.77" cy="558.2" fill="#8b9ad9"></circle><circle r="5" cx="802.94" cy="647.19" fill="#8b9ad9"></circle><circle r="5" cx="944.71" cy="380.09" fill="#8b9ad9"></circle><circle r="5" cx="992.86" cy="508.07" fill="#8b9ad9"></circle><circle r="5" cx="940.15" cy="695.06" fill="#8b9ad9"></circle><circle r="5" cx="1112.79" cy="399.05" fill="#8b9ad9"></circle><circle r="5" cx="1157.17" cy="506.53" fill="#8b9ad9"></circle><circle r="5" cx="1159.03" cy="657.21" fill="#8b9ad9"></circle><circle r="5" cx="1260.63" cy="-105.88" fill="#8b9ad9"></circle><circle r="5" cx="1253.01" cy="90.47" fill="#8b9ad9"></circle><circle r="5" cx="1301.33" cy="702.28" fill="#8b9ad9"></circle><circle r="5" cx="1453.03" cy="-112.31" fill="#8b9ad9"></circle><circle r="5" cx="1393.05" cy="89.27" fill="#8b9ad9"></circle><circle r="5" cx="1390.13" cy="341.28" fill="#8b9ad9"></circle><circle r="5" cx="1443.4" cy="562.36" fill="#8b9ad9"></circle><circle r="5" cx="1590.65" cy="49.36" fill="#8b9ad9"></circle><circle r="5" cx="1584.59" cy="230.9" fill="#8b9ad9"></circle><circle r="5" cx="1586.17" cy="385.97" fill="#8b9ad9"></circle><circle r="5" cx="1598.23" cy="525.97" fill="#8b9ad9"></circle><circle r="5" cx="1576.93" cy="681.53" fill="#8b9ad9"></circle></g><defs><mask id="SvgjsMask1000"><rect width="1440" height="560" fill="#ffffff"></rect></mask><radialGradient id="SvgjsRadialGradient1001"><stop stop-color="#ffffff" offset="0.1"></stop><stop stop-color="#1735b3" offset="0.2"></stop><stop stop-color="rgba(23, 53, 179, 0)" offset="1"></stop></radialGradient></defs></svg>